<?xml version="1.0" encoding="UTF-8"?>
<svg id="Layer_2" data-name="Layer 2" xmlns="http://www.w3.org/2000/svg" viewBox="0 0 447.52 339.66">
  <defs>
    <style>
      .cls-1 {
        fill: #000;
      }

      .cls-1, .cls-2 {
        stroke-width: 0px;
      }

      .cls-2 {
        fill: #f7d239;
      }
    </style>
  </defs>
  <g id="Layer_1-2" data-name="Layer 1">
    <g>
      <path class="cls-1" d="M37.42,8.66c14.33-7.64,29-7,29-7,14.32.63,24.6,6.92,29,10,2.46-2.08,10.66-8.5,23-9,11.13-.45,19.16,4.18,22,6,6.5-.97,13.52-1.68,21-2,20.98-.89,39.32,1.64,54,5,1.38-1.33,15.76-14.76,36-11,18.12,3.37,26.78,17.88,28,20,2.83-3.23,16.26-17.87,39-20,24.35-2.28,41.06,11.49,44,14,3.7-3.15,19.22-15.66,41-14,3.78.29,28.21,2.15,38,21,4.14,7.97,7.18,21.9,0,32-2.51,3.54-5.64,5.7-8,7,8.51,6.29,12.89,15.66,11,24-.91,4.04-3.12,7.04-5,9,2.18,3.16,9,13.92,8,29-1.08,16.19-10.45,26.4-13,29,4.1,9.5,9.71,26.05,9,47-1.15,34.18-18.35,57.76-25,66,8.33.33,16.67.67,25,1,2.27,8.1,4.45,19.44,4,33-.28,8.52-1.53,15.95-3,22-14.37,3.74-32.28,7.07-53,8-29.27,1.31-53.97-2.63-72-7-9.88,3.96-30.78,10.75-57,7-18-2.57-31.67-9.13-40-14-3.98,3.1-10.34,7.27-19,10-12.02,3.79-22.41,2.9-28,2-8.93,5.48-24.41,13.05-44,13-40.94-.11-74.63-34.25-87-69-17.55-49.33,10.51-92.78,14-98-3.8-1.91-52.97-27.62-58-80C-2.66,60.53,11.28,22.6,37.42,8.66Z"/>
      <g>
        <path class="cls-2" d="M128.06,160.8c.79,0,1.68.27,2.67.79.99.53,2.54.79,4.64.79.79,0,1.81-.07,3.06-.2,1.25-.13,2.2-.2,2.87-.2,2.37,0,4.18.69,5.44,2.08,1.25,1.38,2.2,2.08,2.87,2.08.4,0,.59-.26.59-.79,0-.26-.07-.59-.2-.99-.13-.39-.2-.79-.2-1.19,0-1.45.66-2.17,1.98-2.17.26,0,.86.4,1.78,1.19.92.79,2.3,1.19,4.15,1.19,2.37,0,3.88.86,4.55,2.57.26.79,1.45,2.37,3.56,4.74,2.11,2.37,4.25,5.47,6.42,9.29,2.17,3.82,3.72,8.1,4.64,12.85.66,3.69.99,9.29.99,16.8,0,10.15-.36,20.75-1.09,31.82-.73,11.07-1.55,16.87-2.47,17.39-.92.53-1.38,1.78-1.38,3.76,0,2.37-1.68,6.49-5.04,12.35-3.36,5.87-6.95,10.84-10.77,14.92-4.48,5.01-9.49,8.24-15.02,9.68-8.04,2.11-13.18,3.16-15.42,3.16-3.29,0-7.35-1.35-12.15-4.05-4.81-2.7-7.28-4.05-7.41-4.05-1.19-.13-3.39-1.75-6.62-4.84-3.23-3.09-5.7-6.09-7.41-8.99-6.19-9.75-9.29-23.32-9.29-40.71,0-9.35.33-16.27.99-20.75,1.32-9.49,4.87-19.7,10.67-30.63,5.8-10.93,11.13-17.46,16.01-19.57,2.63-1.19,4.15-2.37,4.55-3.56.4-1.05,1.98-2.11,4.74-3.16,2.77-1.05,5.2-1.58,7.31-1.58ZM138.24,273.65c.46-.4.69-.66.69-.79s-.07-.2-.2-.2-.2-.06-.2-.2c0-.66,1.19-2.04,3.56-4.15,6.32-6.19,9.49-21.15,9.49-44.86,0-10.54-.66-17.13-1.98-19.76-1.85-3.95-3.33-6.95-4.45-8.99-1.12-2.04-2.57-4.02-4.35-5.93-1.78-1.91-3.59-2.87-5.44-2.87-1.19,0-3.56.79-7.12,2.37-3.16,1.45-5.4,2.93-6.72,4.45-1.32,1.52-3.1,4.71-5.34,9.59-3.69,7.78-5.53,17.26-5.53,28.46,0,5.67.79,12.25,2.37,19.76.66,2.77,2.37,6.66,5.14,11.66,2.77,5.01,4.94,7.97,6.52,8.89,4.22,2.77,7.31,4.15,9.29,4.15.79,0,1.58-.16,2.37-.49.79-.33,1.41-.69,1.88-1.09ZM125.29,277.01c-1.06,0-2.14-.69-3.26-2.08-1.12-1.38-1.95-2.08-2.47-2.08s-.79.27-.79.79c0,1.06.99,2.37,2.96,3.95s3.49,2.37,4.55,2.37c.66,0,.99-.46.99-1.38,0-1.05-.66-1.58-1.98-1.58ZM154.94,167.91c-.79,0-1.19.4-1.19,1.19,0,1.06.4,1.58,1.19,1.58.52,0,2.4,1.98,5.63,5.93,3.23,3.95,5.44,5.93,6.62,5.93.26,0,.4-.2.4-.59,0-1.58-1.68-4.31-5.04-8.2-3.36-3.89-5.9-5.83-7.61-5.83ZM171.34,187.28c0-1.32-.46-1.98-1.38-1.98-.66,0-.99.53-.99,1.58,0,.66.2,1.28.59,1.88.4.59.72.89.99.89.52,0,.79-.79.79-2.37Z"/>
        <path class="cls-2" d="M240.37,217.5c.48,0,1.07.38,1.79,1.13.72.76,1.63,1.13,2.74,1.13.72,0,1.47-.26,2.27-.77.79-.52,1.39-.77,1.79-.77.48,0,.72.28.72.83,0,1.67-1.01,5.07-3.04,10.19-2.03,5.13-3.99,9.32-5.9,12.58-6.04,10.17-9.14,16.41-9.3,18.72,0,.16.87,1.69,2.62,4.59,1.75,2.9,2.82,4.39,3.22,4.47.56,0,.83.4.83,1.19v.24c0,.88.77,2.7,2.32,5.48,1.55,2.78,2.6,4.21,3.16,4.29.4.08,1.07,1.21,2.03,3.4.95,2.19,1.59,3.28,1.91,3.28.4.08.79.56,1.19,1.43.4.88.6,1.67.6,2.38,0,.64-.2.95-.6.95-.56,0-1.45-.67-2.68-2.03-1.23-1.35-1.93-2.03-2.09-2.03l-.12.12c0,.24.87,1.71,2.62,4.41,1.75,2.7,2.62,4.49,2.62,5.36,0,.95-.64,2.15-1.91,3.58-1.27,1.43-2.31,2.15-3.1,2.15-.08,0-.22-.04-.42-.12-.2-.08-.42-.12-.66-.12-.32,0-.66.1-1.01.3-.36.2-.62.3-.77.3-1.59,0-4.35-2.38-8.29-7.15-3.93-4.77-7.33-9.81-10.19-15.14l-1.67-3.22-3.1,5.48c-5.33,9.3-8.64,14.92-9.95,16.87-1.31,1.95-2.56,2.92-3.76,2.92-.24,0-.46-.06-.66-.18-.2-.12-.38-.18-.54-.18-.4,0-.62.24-.66.72-.04.48-.22.71-.54.71-.48,0-1.51-.44-3.1-1.31-1.59-.87-2.38-1.51-2.38-1.91,0-.24-.5-.54-1.49-.89-.99-.36-1.49-1.13-1.49-2.33,0-.95.44-1.91,1.31-2.86.87-.95,1.31-1.95,1.31-2.98v-.83c0-.95.4-1.67,1.19-2.15.79-.48,1.19-.99,1.19-1.55s.42-1.09,1.25-1.61c.83-.52,1.33-1.21,1.49-2.09.16-.87.4-1.51.72-1.91.32-.4.52-.95.6-1.67.08-.79.75-2.01,2.03-3.64,1.27-1.63,2.07-2.8,2.38-3.52.32-.87.87-2.12,1.67-3.75.79-1.63,1.47-3.04,2.03-4.23.56-1.19.83-2.07.83-2.62,0-.4-1.13-2.78-3.4-7.15-2.27-4.37-4.61-8.92-7.03-13.65-2.43-4.73-3.8-7.49-4.11-8.29-.4-1.03-1.01-2.38-1.85-4.05s-1.49-3.1-1.97-4.29c-.48-1.19-.72-2.22-.72-3.1,0-.79.24-1.19.72-1.19.08,0,.16.04.24.12h.24c.48,0,1.23-.93,2.27-2.8,1.03-1.87,1.91-2.8,2.62-2.8.16,0,.77.36,1.85,1.07,1.07.71,2.24,1.07,3.52,1.07.79,0,1.39-.26,1.79-.77.4-.52.72-.77.95-.77,1.11,0,2.52,1.49,4.23,4.47,1.71,2.98,2.56,4.75,2.56,5.31,0,.16.75,1.67,2.27,4.53,1.51,2.86,2.27,4.65,2.27,5.37v.12c0,.56.4,1.13,1.19,1.73.79.6,1.19,1.09,1.19,1.49v.24c0,.4.24.95.72,1.67.48.71.87,1.07,1.19,1.07.4,0,1.09-.78,2.09-2.33.99-1.55,1.87-3.08,2.62-4.59.75-1.51,1.13-2.3,1.13-2.38,0-.16.67-1.47,2.03-3.93,1.35-2.46,2.07-4.09,2.15-4.89.08-.79.79-1.43,2.15-1.91,1.35-.48,2.03-1.35,2.03-2.62v-.6c.08-.4.58-.79,1.49-1.19.91-.4,1.77-.6,2.56-.6ZM208.18,223.11c0-.87-.32-1.75-.95-2.62-.64-.87-1.23-1.31-1.79-1.31-.64,0-.95.32-.95.95,0,.24.18.54.54.89s.91.97,1.67,1.85c.75.88,1.45,1.91,2.09,3.1,1.27,1.99,1.99,2.98,2.15,2.98.08-.08.12-.16.12-.24,0-.48-.26-1.29-.77-2.44-.52-1.15-.97-1.77-1.37-1.85-.48,0-.72-.36-.72-1.07v-.24ZM213.19,233c0-.16.06-.32.18-.48.12-.16.18-.28.18-.36,0-.16-.24-.24-.72-.24-.64,0-.95.2-.95.6,0,.56.38,1.45,1.13,2.68.75,1.23,1.33,1.85,1.73,1.85.16,0,.24-.12.24-.36,0-.32-.3-.91-.89-1.79-.6-.87-.89-1.51-.89-1.91ZM220.22,247.66c.08,0,.12-.16.12-.48,0-.95-.38-2.1-1.13-3.46-.76-1.35-1.53-2.5-2.32-3.46-.8-.95-1.27-1.43-1.43-1.43-.08,0-.12.12-.12.36,0,1.83.56,2.98,1.67,3.46.72.32,1.07.83,1.07,1.55v.12c0,.56.26,1.23.77,2.03.52.79.97,1.23,1.37,1.31ZM230.6,264.59c0-.32-.14-.66-.42-1.01-.28-.36-.54-.54-.77-.54-.4,0-.6.36-.6,1.07,0,.88.28,1.31.83,1.31.64,0,.95-.28.95-.83ZM234.41,272.94c.32,0,.48-.16.48-.48,0-.55-.5-1.65-1.49-3.28-.99-1.63-1.65-2.48-1.97-2.56-.08,0-.12.08-.12.24,0,.79.4,2.01,1.19,3.64.79,1.63,1.43,2.44,1.91,2.44ZM243.59,287.12v-.12c0-.32-.42-1.13-1.25-2.44-.83-1.31-1.75-2.72-2.74-4.23-.99-1.51-1.61-2.54-1.85-3.1-.4-.71-.68-1.07-.83-1.07s-.24.16-.24.48c0,1.03,1.05,3.04,3.16,6.02,2.1,2.98,3.36,4.47,3.76,4.47Z"/>
        <path class="cls-2" d="M261.89,169.1l2.37.2c.52,0,1.22-1.22,2.08-3.66.86-2.44,1.68-3.72,2.47-3.85,9.75-1.32,22.93-1.98,39.53-1.98,7.12,0,11.2.59,12.25,1.78,1.05,1.32,3.49,1.98,7.31,1.98,5.01,0,7.51,1.85,7.51,5.53,0,2.11-.79,4.94-2.37,8.5-.79,1.71-2.67,6.89-5.63,15.51-2.96,8.63-5.24,14.79-6.82,18.48-2.24,5.27-4.78,12.12-7.61,20.55-2.83,8.43-4.25,13.44-4.25,15.02,0,1.45-.4,2.74-1.19,3.85-.79,1.12-1.19,1.81-1.19,2.08l-6.13,19.57c-4.09,13.04-6.13,20.03-6.13,20.95,0,1.32-.89,3.33-2.67,6.03-1.78,2.7-3.26,4.38-4.45,5.04-1.85.92-4.55,1.38-8.1,1.38-4.61,0-6.92-.99-6.92-2.96,0-.79-.96-2.08-2.87-3.85-1.91-1.78-2.87-3.13-2.87-4.05,0-.53.53-2.3,1.58-5.34,1.05-3.03,1.78-5.6,2.17-7.71.66-4.21,3.85-15.54,9.59-33.99,5.73-18.45,11.76-36.23,18.08-53.36l3.56-9.09-3.95-.2c-.27,0-1.06-.03-2.37-.1-1.32-.06-2.37-.1-3.16-.1l1.19.2c-1.71.13-6.46.27-14.23.4l-10.87.2-4.94-5.73c-3.16-3.82-4.74-6.65-4.74-8.5s1.25-2.77,3.76-2.77ZM330.07,173.45c.52,0,.79-.26.79-.79s-.33-1.15-.99-1.88c-.66-.72-1.19-1.09-1.58-1.09-.27,0-.4.27-.4.79,0,.79.23,1.48.69,2.08.46.59.95.89,1.48.89Z"/>
        <path class="cls-2" d="M341.3,207.97c-2.77,0-5.17-1.05-7.21-3.16-2.04-2.11-3.06-4.48-3.06-7.12,0-2.9,2.63-8.3,7.91-16.21,5.27-7.91,11.86-14.49,19.76-19.76,3.95-2.63,8.63-3.95,14.03-3.95,4.74,0,11,.46,18.78,1.38,1.45.13,3.06.92,4.84,2.37,1.78,1.45,3.59,4.38,5.44,8.79,1.84,4.42,2.77,9.85,2.77,16.31,0,10.28-1.65,20.55-4.94,30.83-.79,2.64-2.17,6.13-4.15,10.48-1.98,4.35-3.1,7.05-3.36,8.1-1.71,5.8-5.14,13.61-10.28,23.42-5.14,9.82-7.78,15.25-7.91,16.3,1.45-.13,5.53-.2,12.25-.2,11.59,0,17.65.27,18.18.79.13.13.2.4.2.79,0,.79-.53,1.65-1.58,2.57-1.06.92-2.04,1.38-2.96,1.38-.13,0-.4-.03-.79-.1-.4-.06-.73-.1-.99-.1-.53,0-.79.2-.79.59,0,.53.69,1.55,2.08,3.06,1.38,1.52,2.08,3.46,2.08,5.83,0,2.5-.73,4.88-2.17,7.12-1.06,1.45-2.34,2.34-3.85,2.67-1.52.33-5.11.49-10.77.49h-2.17c-8.43,0-14.23.49-17.39,1.48s-8.37,1.48-15.61,1.48c-3.56,0-6-.27-7.31-.79-1.32-.53-3.16-1.85-5.53-3.95-3.56-3.16-5.34-5.4-5.34-6.72,0-.92.92-2.27,2.77-4.05,1.84-1.78,2.77-3.06,2.77-3.85s2.21-3.79,6.62-8.99c4.41-5.2,6.62-8.33,6.62-9.39,0-.53,1.48-3,4.45-7.41,2.96-4.41,4.45-7.21,4.45-8.4,0-.13,1.41-3,4.25-8.6,2.83-5.6,5.66-12.98,8.5-22.14,2.83-9.16,4.25-18.28,4.25-27.37,0-6.06-.99-9.09-2.96-9.09-1.19,0-6,4.22-14.43,12.65-5.14,5.14-8.86,8.5-11.17,10.08-2.31,1.58-4.38,2.37-6.23,2.37ZM397.23,176.15c0,.92.56,2.04,1.68,3.36,1.12,1.32,1.94,1.98,2.47,1.98.13,0,.2-.07.2-.2s-.17-.43-.49-.89c-.33-.46-.82-1.45-1.48-2.96-.66-1.51-1.32-3.46-1.98-5.83-.13-.66-.43-1.58-.89-2.77-.46-1.19-1.35-2.5-2.67-3.95-1.32-1.45-2.77-2.17-4.35-2.17-.66,0-.99.27-.99.79s1.41,2.47,4.25,5.83c2.83,3.36,4.25,5.63,4.25,6.82Z"/>
      </g>
      <g>
        <path class="cls-2" d="M63.02,24.82c.61,0,1.14-.33,1.6-.99.46-.66,1.19-.99,2.21-.99,1.42,0,4.07.61,7.93,1.83,5.39,1.73,8.82,3.18,10.3,4.35,1.47,1.17,3.63,4.25,6.48,9.23,1.12,1.93,1.93,3.64,2.44,5.11.51,1.48,1.04,4.58,1.6,9.31.56,4.73.84,10.86.84,18.38,0,4.98-.28,9.66-.84,14.03-.56,4.37-.84,6.86-.84,7.47s.05.97.15,1.07v.15c0,.3-.43,1.3-1.3,2.97-.87,1.68-1.3,3.13-1.3,4.35v.3c0,3.36-2.24,8.9-6.71,16.63-4.98,8.75-12.66,13.12-23.03,13.12-2.85,0-5.31-.43-7.4-1.3-2.09-.86-4.75-2.62-8.01-5.26-6.31-5.19-10.58-11.49-12.81-18.92-2.24-7.42-3.36-16.12-3.36-26.09,0-3.56.13-7.47.38-11.75.25-4.27.38-6.91.38-7.93v-1.53c0-1.42.33-2.54.99-3.36.66-.81.99-1.53.99-2.14v-.15c0-1.12,1.17-4.47,3.51-10.07,1.63-3.76,3.02-6.41,4.2-7.93,1.17-1.53,3.02-3.15,5.57-4.88,6-3.97,9.86-5.95,11.59-5.95.61,0,1.4.15,2.36.46.97.31,1.65.46,2.06.46ZM75.83,69.51c0-.61-.03-1.53-.08-2.75-.05-1.22-.25-3.25-.61-6.1-.36-2.85-.82-5.52-1.37-8.01-.56-2.49-1.45-4.96-2.67-7.4s-2.7-4.17-4.42-5.19c-1.12-.71-1.93-1.07-2.44-1.07-.71,0-2.14,1.27-4.27,3.81-4.48,5.8-6.71,16.63-6.71,32.49,0,.71.02,1.75.08,3.13.05,1.37.08,2.31.08,2.82.2,4.78.56,7.81,1.07,9.08.51,1.27.81,2.47.92,3.58.31,2.85,1.75,6.33,4.35,10.45,2.59,4.12,4.65,6.18,6.18,6.18.2,0,.46-.13.76-.38.3-.25.58-.53.84-.84.25-.31.53-.61.84-.92l.46-.61c2.14-3.15,3.84-8.57,5.11-16.25,1.27-7.68,1.91-15.03,1.91-22.04ZM55.85,105.52c0-.71-.51-1.42-1.53-2.14-.51-.31-.76-.2-.76.3s.15,1.04.46,1.6c.31.56.71.84,1.22.84h.15c.31-.1.46-.31.46-.61ZM61.95,112.38c0-.41-.56-1.14-1.68-2.21-1.12-1.07-1.93-1.6-2.44-1.6s-.76.36-.76,1.07c0,2.24,1.37,3.36,4.12,3.36.51,0,.76-.2.76-.61ZM80.56,30.16c-.81,0-.36,1.12,1.37,3.36.1.1.2.21.31.3,1.73,2.14,3.51,5.06,5.34,8.77,1.83,3.71,2.8,6.33,2.9,7.86,0,1.42.36,2.14,1.07,2.14.2,0,.31-.36.31-1.07,0-1.53-.59-4.12-1.75-7.78-1.17-3.66-1.96-5.64-2.36-5.95-.21-.1-1.3-1.4-3.28-3.89-1.98-2.49-3.28-3.74-3.89-3.74ZM93.98,60.21c0-1.22-.21-1.83-.61-1.83-.2,0-.3.41-.3,1.22,0,1.12.2,1.68.61,1.68.2,0,.31-.35.31-1.07Z"/>
        <path class="cls-2" d="M116.1,20.39c0-1.53.56-2.29,1.68-2.29,1.22,0,3,.92,5.34,2.75l4.42,3.66-.76-2.9c-.1-.4-.15-.96-.15-1.68,0-.81.25-1.22.76-1.22.81,0,1.53.59,2.14,1.75.61,1.17.92,2.42.92,3.74,0,.3-.1,1.2-.31,2.67-.21,1.47-.71,3.51-1.53,6.1-.82,2.59-1.81,5.03-2.97,7.32-1.17,2.29-2.85,4.3-5.03,6.03-2.19,1.73-4.65,2.59-7.4,2.59-1.32,0-2.44-.46-3.36-1.37-.92-.92-1.55-1.78-1.91-2.59-.36-.81-.53-1.37-.53-1.68,0-.71.66-2.54,1.98-5.49,1.32-2.95,1.98-5.34,1.98-7.17,0-.51-.05-1.02-.15-1.53-.1-.51-.15-.97-.15-1.37,0-1.42.41-2.72,1.22-3.89.81-1.17,1.73-1.75,2.75-1.75.71,0,1.07-.56,1.07-1.68Z"/>
        <path class="cls-2" d="M154.09,68.29c0,4.48.31,6.71.92,6.71.51-.1,1.09-.2,1.75-.3.66-.1,1.53-.2,2.59-.31,1.07-.1,2.57-.23,4.5-.38,1.93-.15,4.12-.28,6.56-.38,2.95-.2,5.19-.38,6.71-.53,1.53-.15,2.62-.48,3.28-.99.66-.51,1.02-.89,1.07-1.14.05-.25.13-.94.23-2.06-.3-1.42-.53-2.8-.69-4.12-.15-1.32-.33-2.9-.53-4.73-.21-1.83-.38-4.07-.53-6.71-.15-2.64-.23-5.44-.23-8.39,0-1.73.1-4.83.31-9.3.2-4.68,1.12-7.58,2.75-8.7.92-.71,1.85-1.8,2.82-3.28.97-1.47,2.01-2.21,3.13-2.21.4,0,.69.03.84.08.15.05.25.18.31.38.05.21.13.41.23.61.1.21.36.48.76.84.41.36.97.74,1.68,1.14,1.22.61,1.88.92,1.98.92.31,0,.53-.56.69-1.68.15-1.12.58-1.68,1.3-1.68,2.85,0,4.27,7.12,4.27,21.36v6.25c0,3.76.2,11.65.61,23.64.41,12,.61,21.41.61,28.22,0,7.42-.1,12.97-.31,16.63-.41,8.04-1.48,12.05-3.2,12.05h-.15c-.51,0-1.27.41-2.29,1.22-1.02.81-1.98,1.22-2.9,1.22-.51,0-1.53-.23-3.05-.69-1.53-.46-2.7-.69-3.51-.69h-.61l-.15.15c-.61,0-1.27-.46-1.98-1.37-1.53-2.03-2.29-7.78-2.29-17.24,0-4.37.25-12.3.76-23.8,0-.71-8.8-1.07-26.39-1.07-1.83,0-2.75.25-2.75.76,0,.3.02.66.08,1.07.05.41.1.89.15,1.45.05.56.1,1.32.15,2.29.05.97.1,2.04.15,3.2.05,1.17.08,2.62.08,4.35v9.46l-.3,18.31-3.05,1.07c-1.73.51-3.76.76-6.1.76-1.12,0-2.75-.71-4.88-2.14-1.22-.92-2.06-2.19-2.52-3.81-.46-1.63-1.04-5.39-1.75-11.29-.71-6.1-1.07-16.22-1.07-30.36,0-12.41.31-25.78.92-40.12.2-4.47.61-8.21,1.22-11.21.61-3,1.22-4.96,1.83-5.87.61-.92,1.17-1.7,1.68-2.36.51-.66.76-1.19.76-1.6,0-.2-.08-.38-.23-.53-.15-.15-.23-.28-.23-.38,0-.61.66-.92,1.98-.92,1.53,0,3.46.43,5.8,1.3,2.34.87,3.61,1.3,3.81,1.3s.3-.1.3-.31c0-.1-.05-.3-.15-.61-.1-.31-.15-.56-.15-.76,0-1.02.46-1.53,1.37-1.53,1.53,0,2.29,4.17,2.29,12.51,0,3.97-.21,10.3-.61,18.99-.41,8.7-.61,14.47-.61,17.31Z"/>
        <path class="cls-2" d="M244.54,20.7c.61,0,2.03.89,4.27,2.67,2.24,1.78,3.91,2.67,5.03,2.67.31,0,.46-.1.46-.3,0-.71.61-1.07,1.83-1.07,1.12,0,1.68.76,1.68,2.29,0,1.42.36,2.14,1.07,2.14.41,0,.97-.31,1.68-.92.71-.61,1.32-.92,1.83-.92,1.32,0,1.98.92,1.98,2.75v.15c0,.92.61,3.79,1.83,8.62,1.22,4.83,1.83,8.26,1.83,10.3,0,2.65.35,3.97,1.07,3.97.31,0,.46.41.46,1.22,0,.3-.03.66-.08,1.07-.05.41-.08.76-.08,1.07,0,1.02.31,2.01.92,2.97.61.97.92,1.6.92,1.91,0,.1-.05.26-.15.46-.1.21-.15.46-.15.76,0,.1.79,3.89,2.36,11.37,1.58,7.47,2.36,12.08,2.36,13.8,0,.51-.05.92-.15,1.22-.1.3-.15.61-.15.92,0,.41.25.92.76,1.53.51.61.76,1.37.76,2.29v.15c0,1.12.63,4.45,1.91,9.99,1.27,5.54,1.91,8.82,1.91,9.84s-.36,1.68-1.07,1.98c-.71.31-1.07.61-1.07.92.2.3.35.56.46.76.1.21.23.51.38.92.15.41.28.97.38,1.68.1.71.15,1.58.15,2.59,0,2.75-.1,4.75-.3,6.03-.21,1.27-.43,2.01-.69,2.21-.26.2-.69.3-1.3.3-1.12,0-1.68.31-1.68.92,0,.41-.53.81-1.6,1.22-1.07.41-2.16.61-3.28.61-.51,0-1.17-.1-1.98-.3-1.32-.41-3.1-1.83-5.34-4.27-1.63-1.83-2.77-3.56-3.43-5.19-.66-1.63-1.35-4.42-2.06-8.39-.3-1.73-1.09-5.08-2.36-10.07-1.27-4.98-2.01-7.63-2.21-7.93h-.31c-.81,0-3.1.36-6.86,1.07-2.95.61-4.96,1.2-6.03,1.75-1.07.56-1.96,1.5-2.67,2.82-1.12,2.24-1.68,4.07-1.68,5.49,0,2.04-.99,6.43-2.97,13.2-1.98,6.76-3.84,10.14-5.57,10.14-.31,0-.61-.15-.92-.46-.3-.3-.61-.46-.92-.46-.51,0-1.12.41-1.83,1.22-.71.81-1.22,1.22-1.53,1.22-.1,0-.26-.18-.46-.53-.21-.36-.69-.84-1.45-1.45-.76-.61-1.86-1.22-3.28-1.83-1.12-.51-1.88-.86-2.29-1.07-.41-.2-.74-.53-.99-.99-.26-.46-.38-1.09-.38-1.91,0-.71.05-1.55.15-2.52.1-.97.2-1.93.31-2.9.1-.97.2-1.88.31-2.75.1-.86.2-1.6.31-2.21l.15-.76v-.3c0-.41,1.14-4.88,3.43-13.42,2.29-8.54,3.53-13.58,3.74-15.1.2-1.53.69-3.2,1.45-5.03.76-1.83,1.14-2.95,1.14-3.36v-.46c0-.92.43-3.1,1.3-6.56.86-3.46,1.65-6,2.36-7.63,1.53-3.66,2.75-8.72,3.66-15.18.92-6.46,1.78-11.64,2.59-15.56.81-3.91,2.03-5.87,3.66-5.87h.15c1.02,0,2.06-.92,3.13-2.75,1.07-1.83,2.11-2.75,3.13-2.75ZM250.34,79.58c0-.1-.28-1.12-.84-3.05-.56-1.93-.84-3.71-.84-5.34,0-2.14-.31-3.2-.92-3.2-.82,0-1.43,1.37-1.83,4.12-.1.71-.31,1.81-.61,3.28-.31,1.48-.56,2.72-.76,3.74l-.31,1.68c0,.41.15.61.46.61.1,0,.71-.18,1.83-.53,1.12-.36,2.03-.53,2.75-.53s1.07-.25,1.07-.76ZM262.09,37.94c0-.51-.13-1.09-.38-1.75-.26-.66-.53-1.22-.84-1.68-.3-.46-.51-.69-.61-.69s-.15.61-.15,1.83c0,2.34.46,3.51,1.37,3.51.41,0,.61-.41.61-1.22ZM261.63,40.84c-.21,0-.31.3-.31.92,0,.82.2,1.7.61,2.67.41.97.76,1.45,1.07,1.45.2,0,.31-.25.31-.76,0-.81-.21-1.73-.61-2.75-.41-1.02-.76-1.53-1.07-1.53ZM263.76,56.55c0,.51.15.99.46,1.45.3.46.56.69.76.69.41,0,.61-.61.61-1.83l-1.07-1.53c-.51,0-.76.41-.76,1.22ZM267.2,62.73c-.56-.96-.94-1.45-1.14-1.45s-.31.61-.31,1.83c0,1.63.35,2.44,1.07,2.44.81,0,1.22-.25,1.22-.76,0-.41-.28-1.09-.84-2.06Z"/>
        <path class="cls-2" d="M300.53,24.51c.1,0,.25.05.46.15.2.1.41.15.61.15.92,0,2.03-.41,3.36-1.22,1.83-1.22,5.13-2.39,9.92-3.51,4.78-1.12,9.81-1.68,15.1-1.68h.61c2.34,0,4.19.28,5.57.84,1.37.56,3.69,1.86,6.94,3.89,6,3.87,9.92,6.99,11.75,9.38,1.83,2.39,2.75,6.23,2.75,11.52s-.56,7.98-1.68,8.39c-.82.21-1.22.92-1.22,2.14,0,.82-.66,2.26-1.98,4.35-1.32,2.09-1.98,3.33-1.98,3.74,0,.1.05.15.15.15l.15.15c0,.3-.89,1.35-2.67,3.13s-2.67,2.92-2.67,3.43c0,.1-.38.53-1.14,1.3s-1.81,1.81-3.13,3.13c-1.32,1.32-2.49,2.54-3.51,3.66l-6.25,7.17,6.25,6.87c.81.3,1.65,1.04,2.52,2.21.86,1.17,1.7,2.42,2.52,3.74.81,1.32,1.37,2.14,1.68,2.44,2.75,3.05,5.54,6,8.39,8.85,1.02,1.02,1.96,2.11,2.82,3.28.86,1.17,1.58,2.16,2.14,2.97.56.82.89,1.27.99,1.37.61.61.92,1.83.92,3.66,0,4.37-.46,7.02-1.37,7.93-1.73,1.63-4.02,2.44-6.86,2.44h-3.05c-1.02,0-2.65-.61-4.88-1.83-1.83-.92-7.32-6.58-16.48-17.01-9.15-10.42-13.73-16.09-13.73-17.01,0-.71-.25-1.07-.76-1.07s-.84,2.57-.99,7.7c-.15,5.14-.33,10.6-.53,16.4-.21,5.8-.56,9.21-1.07,10.22-1.02,1.83-2.9,2.75-5.64,2.75-1.83,0-3.48-.56-4.96-1.68-1.48-1.12-2.42-1.68-2.82-1.68h-.46c-.71,0-1.63-1.7-2.75-5.11-1.12-3.41-1.68-6.28-1.68-8.62,0-.31.02-.63.08-.99.05-.35.08-1.12.08-2.29v-5.11c0-5.9-.15-15.05-.46-27.46-.31-12.41-.46-20.54-.46-24.41,0-15.56,1.07-23.7,3.2-24.41.51-.2,1.5-.99,2.97-2.36,1.47-1.37,2.57-2.06,3.28-2.06ZM308.31,42.36c0-.61-.13-1.32-.38-2.14-.25-.81-.48-1.22-.69-1.22-.31,0-.46.76-.46,2.29s.31,2.29.92,2.29c.41,0,.61-.41.61-1.22ZM313.04,72.87c4.17-1.32,6.25-2.39,6.25-3.2,0-.1.28-.43.84-.99.56-.56,1.27-1.3,2.14-2.21.86-.92,1.6-1.73,2.21-2.44,2.54-3.05,4.81-6.69,6.79-10.91,1.98-4.22,2.98-7.55,2.98-9.99,0-2.64-.92-4.93-2.75-6.87-1.12-1.22-2.11-2.01-2.97-2.36-.87-.35-2.31-.53-4.35-.53-9.46,0-14.19.61-14.19,1.83l.15,1.98c.1,1.32.25,3.18.46,5.57.2,2.39.41,5.06.61,8.01.2,2.95.43,6.36.69,10.22.25,3.87.43,7.63.53,11.29,0,.41.2.61.61.61ZM342.63,103.07c0-.41-.23-.79-.69-1.14-.46-.36-.89-.53-1.3-.53s-.61.15-.61.46c0,.41.23.79.69,1.14.46.36.89.53,1.3.53s.61-.15.61-.46ZM347.66,108.26c0-.51-.48-1.22-1.45-2.13-.97-.92-1.75-1.37-2.36-1.37-.21,0-.31.1-.31.3,0,.41.51,1.09,1.53,2.06,1.02.97,1.78,1.45,2.29,1.45.2,0,.31-.1.31-.31ZM354.22,43.43c0-2.44-.56-5.11-1.68-8.01-1.12-2.9-2.29-4.35-3.51-4.35-.21,0-.31.1-.31.31,0,.61.61,2.44,1.83,5.49s1.83,5.14,1.83,6.25c-.1.51-.15,1.22-.15,2.14.1,3.76.25,5.64.46,5.64.1,0,.25-.38.46-1.14.2-.76.43-1.75.69-2.97.25-1.22.38-2.34.38-3.36Z"/>
        <path class="cls-2" d="M369.94,125.65c0-.51.35-.92,1.07-1.22.71-.3,1.07-.71,1.07-1.22,0-.2-.21-.92-.61-2.14-.61-1.53-.92-12.91-.92-34.17,0-33.05.41-51.31,1.22-54.76.51-2.54,1.32-3.91,2.44-4.12,1.12-.1,1.88-.2,2.29-.3.41-.1.74-.31.99-.61.25-.3.53-.86.84-1.68.61-1.83,1.63-2.75,3.05-2.75.92,0,2.16.53,3.74,1.6,1.58,1.07,2.77,1.6,3.58,1.6l.46-.15c.31,0,.71-.05,1.22-.15.51-.1,1.17-.2,1.98-.31.81-.1,1.8-.2,2.97-.3,1.17-.1,2.41-.2,3.74-.3,1.32-.1,2.9-.18,4.73-.23,1.83-.05,3.76-.08,5.8-.08,3.97,0,6.76.48,8.39,1.45,1.63.97,3,1.45,4.12,1.45.41,0,.81-.08,1.22-.23.41-.15.81-.23,1.22-.23,1.02,0,1.53.41,1.53,1.22,0,.51-.53,1.2-1.6,2.06-1.07.87-1.6,1.86-1.6,2.97,0,.21.02.43.08.69.05.25.08.48.08.69,0,1.93-1.25,3.74-3.74,5.42-2.49,1.68-5.26,2.57-8.31,2.67-9.76.21-15.15.82-16.17,1.83-.51.51-.97,3.64-1.37,9.38-.41,5.75-.61,10.5-.61,14.26,0,1.93.08,3.33.23,4.19.15.87.33,1.37.53,1.53.2.15.56.23,1.07.23,1.32,0,3.53-.25,6.64-.76,3.1-.51,5.21-.76,6.33-.76s2.21.25,3.28.76c1.07.51,2.36.76,3.89.76.61,0,1.27-.05,1.98-.15.71-.1,1.27-.15,1.68-.15,1.83,0,2.75.41,2.75,1.22,0,.41-.51.84-1.53,1.3-1.02.46-1.53,1.25-1.53,2.36,0,.41.05.94.15,1.6.1.66.15,1.3.15,1.91,0,2.24-.69,4.19-2.06,5.87-1.37,1.68-3.13,2.72-5.26,3.13-.81.21-2.7.56-5.64,1.07-2.95.51-4.98.87-6.1,1.07l-7.32,1.22-.31,8.39c0,.71-.03,1.55-.08,2.52-.05.97-.08,1.6-.08,1.91,0,2.34.35,3.51,1.07,3.51l1.37-.46c1.02-.2,2.36-.48,4.04-.84,1.68-.36,3.56-.71,5.64-1.07,2.08-.36,4.42-.66,7.02-.92,2.59-.25,5.11-.38,7.55-.38,4.07,0,6.1.41,6.1,1.22,0,1.12-.81,1.68-2.44,1.68h-1.37c-.51,0-.76.3-.76.92,0,.82.56,1.22,1.68,1.22,1.63,0,2.44,1.68,2.44,5.03,0,3.05-1.48,5.26-4.42,6.64-2.95,1.37-6.25,2.31-9.92,2.82-3.66.51-5.8,1.02-6.41,1.53-.71.51-1.17.76-1.37.76h-.15c0-.1-.15-.15-.46-.15-.21,0-3.18.59-8.92,1.75-5.75,1.17-10.25,1.75-13.5,1.75-2.14,0-4.07-.82-5.8-2.44-2.04-1.83-3.05-3.2-3.05-4.12Z"/>
      </g>
    </g>
  </g>
</svg>